<svg id="visual" viewBox="0 0 900 600" width="900" height="600" xmlns="http://www.w3.org/2000/svg" xmlns:xlink="http://www.w3.org/1999/xlink" version="1.1"><path d="M0 211L82 241L164 241L245 121L327 115L409 205L491 187L573 103L655 115L736 157L818 157L900 139L900 0L818 0L736 0L655 0L573 0L491 0L409 0L327 0L245 0L164 0L82 0L0 0Z" fill="#230382"></path><path d="M0 337L82 349L164 343L245 211L327 235L409 355L491 259L573 229L655 235L736 295L818 223L900 253L900 137L818 155L736 155L655 113L573 101L491 185L409 203L327 113L245 119L164 239L82 239L0 209Z" fill="#220a94"></path><path d="M0 445L82 433L164 511L245 391L327 463L409 457L491 403L573 421L655 421L736 397L818 445L900 445L900 251L818 221L736 293L655 233L573 227L491 257L409 353L327 233L245 209L164 341L82 347L0 335Z" fill="#1f12a6"></path><path d="M0 523L82 481L164 553L245 493L327 529L409 517L491 493L573 493L655 487L736 493L818 499L900 481L900 443L818 443L736 395L655 419L573 419L491 401L409 455L327 461L245 389L164 509L82 431L0 443Z" fill="#171ab9"></path><path d="M0 601L82 601L164 601L245 601L327 601L409 601L491 601L573 601L655 601L736 601L818 601L900 601L900 479L818 497L736 491L655 485L573 491L491 491L409 515L327 527L245 491L164 551L82 479L0 521Z" fill="#0022cc"></path></svg>